<?xml version="1.0" encoding="UTF-8"?>
<svg id="Layer_2" data-name="Layer 2" xmlns="http://www.w3.org/2000/svg" viewBox="0 0 291.18 157.39">
  <defs>
    <style>
      .cls-1 {
        fill: none;
        stroke: #000;
        stroke-linecap: round;
        stroke-linejoin: round;
      }

      .cls-2 {
        fill: #7d6026;
      }
    </style>
  </defs>
  <g id="Layer_2-2" data-name="Layer 2">
    <g>
      <rect class="cls-1" x="128.21" y="87.31" width="9.19" height="10.74"/>
      <rect class="cls-1" x="141.06" y="87.31" width="9.19" height="10.74"/>
      <rect class="cls-1" x="128.21" y="101.28" width="9.19" height="10.74"/>
      <rect class="cls-1" x="141.06" y="101.28" width="9.19" height="10.74"/>
      <polygon class="cls-1" points="67.43 112.02 85.51 112.02 138.4 72.35 193.21 112.02 210.4 112.02 138.4 60.06 67.43 112.02"/>
      <polygon class="cls-1" points="68.53 81.65 85.92 81.65 85.92 68.35 68.53 81.65"/>
      <polygon class="cls-1" points="143.77 .5 101.84 33.5 101.84 24.94 97.99 27.89 97.99 38.8 96.36 38.8 96.36 29.14 89.31 34.53 89.31 47.11 85.92 47.11 85.92 36.8 62.92 54.72 62.92 81.65 63.23 81.65 85.92 64.19 85.92 54.35 89.43 54.35 89.43 95.92 96.5 90.74 101.84 86.82 101.84 42.28 147.18 6.28 143.77 .5"/>
      <polygon class="cls-1" points="96.5 90.74 96.5 45.61 98.32 45.61 98.32 89.07 96.5 90.74"/>
      <polygon class="cls-1" points="68.53 62.22 74.05 58.17 74.05 67 68.53 71 68.53 62.22"/>
      <ellipse class="cls-1" cx="138.27" cy="36.8" rx="4.94" ry="3.47"/>
      <polyline class="cls-1" points="136.67 33.52 136.67 14.62 140.06 11.93 140.06 33.57"/>
      <path class="cls-1" d="m138.07,47.37c-1.08,0-1.96-.88-1.96-1.96s.88-1.96,1.96-1.96l1.54-3.19h-1.54c-2.84,0-5.14,2.3-5.14,5.14s2.3,5.14,5.14,5.14,5.14-2.3,5.14-5.14h-3.19c0,1.08-.88,1.96-1.96,1.96Z"/>
      <g>
        <polygon class="cls-1" points="212.36 97.61 201.28 89.61 185.61 89.61 196.69 97.61 212.36 97.61"/>
        <polygon class="cls-1" points="219.65 102.87 203.98 102.87 216.66 112.02 232.32 112.02 219.65 102.87"/>
      </g>
      <polygon class="cls-1" points="193.99 84.35 181.47 75.31 165.8 75.31 178.32 84.35 193.99 84.35"/>
      <polygon class="cls-1" points="174.18 70.06 160.32 60.06 144.66 60.06 158.51 70.06 174.18 70.06"/>
    </g>
  </g>
  <g id="Layer_3" data-name="Layer 3">
    <g>
      <path class="cls-2" d="m2.64,150.49l.78-3.36c.62.14,1.17.25,1.64.34.47.09.87.14,1.21.14.76,0,1.35-.23,1.79-.69.43-.46.87-1.14,1.33-2.04l-.42,1.77-7.32-14.97.99.75-2.64-.75v-2.16l8.79-.15v2.16l-2.94.84.51-1.05,4.71,11.07-.6.24,4.44-11.07.33.84-2.73-.72v-2.16l7.95-.15v2.16l-2.64.81,1.02-.75-5.82,13.59c-.56,1.3-1.17,2.4-1.84,3.29-.67.89-1.43,1.56-2.27,2-.84.44-1.79.66-2.85.66-.5,0-1.04-.06-1.62-.17s-1.18-.27-1.8-.46Z"/>
      <path class="cls-2" d="m19.47,157.39v-2.16l2.55-.84-.54.72v-18.21l.48.57-2.49-.75v-2.16l5.28-.24.48,2.61-.48-.24c.94-.84,1.85-1.48,2.75-1.92.89-.44,1.81-.66,2.77-.66,1.16,0,2.18.31,3.06.92.88.61,1.58,1.51,2.08,2.7.51,1.19.77,2.65.77,4.37,0,1.94-.33,3.56-.99,4.86-.66,1.3-1.58,2.28-2.77,2.92-1.19.65-2.58.98-4.15.98-.48,0-.98-.04-1.5-.1-.52-.07-1.06-.17-1.62-.28l.54-.48v5.13l-.45-.63,2.79.75v2.16h-8.55Zm8.25-9.51c1.42,0,2.45-.48,3.1-1.44.65-.96.98-2.27.98-3.93,0-1.1-.13-2.04-.39-2.83-.26-.79-.62-1.4-1.08-1.83-.46-.43-1.03-.65-1.71-.65-.52,0-1.07.14-1.65.42-.58.28-1.18.71-1.8,1.29l.51-1.11v10.47l-.51-.81c.94.28,1.79.42,2.55.42Z"/>
      <path class="cls-2" d="m51.57,148.36l-.57-.87,2.58.84v2.16l-5.25.21-.57-2.85.3.09c-.8.96-1.68,1.69-2.62,2.17-.95.49-1.92.73-2.9.73-1.28,0-2.34-.41-3.18-1.23-.84-.82-1.26-2-1.26-3.54,0-1.14.24-2.04.73-2.71.49-.67,1.2-1.15,2.15-1.46.94-.3,2.08-.45,3.42-.45h3.24l-.27.33v-1.98c0-.94-.22-1.61-.67-2.01-.45-.4-1.11-.6-1.96-.6-.42,0-.88.04-1.37.1-.49.07-1,.19-1.54.38l.42-.48-.39,2.49h-2.61l-.24-4.44c1.36-.36,2.6-.64,3.73-.84,1.13-.2,2.16-.3,3.1-.3,1.86,0,3.28.4,4.26,1.2.98.8,1.47,2.04,1.47,3.72v9.33Zm-9.24-2.67c0,.72.17,1.26.52,1.62.35.36.78.54,1.3.54s1.1-.16,1.7-.48c.59-.32,1.16-.75,1.73-1.29l-.21.72v-3.42l.3.3h-2.58c-1.04,0-1.76.17-2.16.5s-.6.84-.6,1.52Z"/>
      <path class="cls-2" d="m57.12,150.79c-.38,0-.79-.04-1.21-.12-.43-.08-.9-.19-1.4-.33l.6-3.27c.2.04.38.07.54.09.16.02.32.03.48.03,1.04,0,1.81-.42,2.31-1.26.5-.84.83-2.07.99-3.69s.25-3.59.27-5.91l1.08,1.26-3.27-.99v-2.13h14.94v2.13l-2.82.96.81-1.32v11.79l-.3-.36,2.31.66v2.16h-8.19v-2.16l2.31-.66-.33.36v-11.67l.66,1.2h-5.22l1.23-1.14c-.02,2.2-.12,4.19-.28,5.95-.17,1.77-.47,3.28-.89,4.53-.42,1.25-1,2.21-1.75,2.88-.75.67-1.71,1-2.87,1Z"/>
      <path class="cls-2" d="m74.37,148.12l1.5-2.7c.96.66,1.9,1.16,2.83,1.5.93.34,1.82.51,2.69.51,1.06,0,2.01-.26,2.85-.79.84-.53,1.5-1.37,1.99-2.52.49-1.15.74-2.63.74-4.46,0-1.52-.2-2.83-.58-3.93-.39-1.1-1-1.95-1.82-2.55-.82-.6-1.86-.9-3.12-.9-1.16,0-2.52.26-4.08.78l.81-.63-.69,3.39h-2.55l-.27-5.16c2.78-1.1,5.29-1.65,7.53-1.65,1.9,0,3.54.4,4.94,1.21,1.39.81,2.46,2,3.22,3.56s1.14,3.47,1.14,5.73c0,2.48-.44,4.56-1.31,6.24-.87,1.68-2.03,2.95-3.48,3.81-1.45.86-3.06,1.29-4.81,1.29-1.24,0-2.5-.23-3.79-.67-1.29-.45-2.54-1.13-3.73-2.06Zm4.44-6.96v-2.91h9.99v2.91h-9.99Z"/>
      <path class="cls-2" d="m94.74,150.79c-.38,0-.79-.04-1.22-.12-.43-.08-.9-.19-1.4-.33l.6-3.27c.2.04.38.07.54.09.16.02.32.03.48.03,1.04,0,1.81-.42,2.31-1.26s.83-2.07.99-3.69c.16-1.62.25-3.59.27-5.91l1.08,1.26-3.27-.99v-2.13h14.94v2.13l-2.82.96.81-1.32v11.79l-.3-.36,2.31.66v2.16h-8.19v-2.16l2.31-.66-.33.36v-11.67l.66,1.2h-5.22l1.23-1.14c-.02,2.2-.12,4.19-.29,5.95-.17,1.77-.46,3.28-.88,4.53-.42,1.25-1,2.21-1.75,2.88-.75.67-1.71,1-2.87,1Z"/>
      <path class="cls-2" d="m119.16,150.85c-1.46,0-2.74-.31-3.83-.92s-1.95-1.51-2.56-2.71c-.62-1.2-.93-2.68-.93-4.44s.33-3.35.98-4.65c.65-1.3,1.56-2.29,2.75-2.99,1.18-.69,2.57-1.03,4.17-1.03s2.83.31,3.81.93c.98.62,1.7,1.47,2.16,2.54.46,1.07.69,2.28.69,3.62,0,.34-.02.67-.05,1-.03.33-.07.7-.13,1.09h-10.98v-2.49h7.38l-.54.39c.02-.8-.05-1.5-.21-2.12-.16-.61-.44-1.08-.84-1.42-.4-.34-.95-.51-1.65-.51-.76,0-1.38.23-1.86.68-.48.45-.82,1.06-1.02,1.81-.2.76-.3,1.6-.3,2.52,0,1.08.12,2.04.38,2.88.25.84.67,1.5,1.27,1.98.6.48,1.38.72,2.34.72.64,0,1.36-.12,2.16-.38s1.62-.62,2.46-1.12l1.44,2.25c-1.18.8-2.37,1.39-3.57,1.78s-2.37.58-3.51.58Z"/>
      <path class="cls-2" d="m132.87,138.16h.6v10.29l-.36-.78,2.16.66v2.16h-7.02v-2.16l2.46-.72-.45.84v-12l.63,1.08-2.64-.81v-2.16l6.57-.21,4.74,10.56h-1.8l4.77-10.35,6.48-.21v2.16l-2.67.93.69-1.05v12.03l-.45-.81,2.43.72v2.16h-7.35v-2.16l2.16-.72-.45.66v-10.41h.63l-4.65,9.96-1.92.09-4.56-9.75Z"/>
      <path class="cls-2" d="m158.13,150.85c-1.46,0-2.74-.31-3.83-.92s-1.95-1.51-2.56-2.71c-.62-1.2-.93-2.68-.93-4.44s.33-3.35.98-4.65c.65-1.3,1.56-2.29,2.75-2.99,1.18-.69,2.57-1.03,4.17-1.03s2.83.31,3.81.93c.98.62,1.7,1.47,2.16,2.54.46,1.07.69,2.28.69,3.62,0,.34-.02.67-.05,1-.03.33-.07.7-.13,1.09h-10.98v-2.49h7.38l-.54.39c.02-.8-.05-1.5-.21-2.12-.16-.61-.44-1.08-.84-1.42-.4-.34-.95-.51-1.65-.51-.76,0-1.38.23-1.86.68-.48.45-.82,1.06-1.02,1.81-.2.76-.3,1.6-.3,2.52,0,1.08.12,2.04.38,2.88.25.84.67,1.5,1.27,1.98.6.48,1.38.72,2.34.72.64,0,1.36-.12,2.16-.38s1.62-.62,2.46-1.12l1.44,2.25c-1.18.8-2.37,1.39-3.57,1.78s-2.37.58-3.51.58Z"/>
      <path class="cls-2" d="m167.22,150.49v-2.16l2.82-.87-.81,1.32v-12.42l1.08,1.32-3.09-.96v-2.16l8.07-.21v2.16l-2.76.96.9-1.23v5.55l-1.08-1.11h8.19l-1.08,1.11v-5.43l.66,1.05-2.52-.69v-2.16l8.04-.21v2.16l-2.82.96.84-1.23v12.54l-.81-1.32,2.79.87v2.16h-8.04v-2.16l2.55-.75-.69,1.2v-6.24l1.08,1.14h-8.19l1.08-1.14v6.24l-.69-1.2,2.55.75v2.16h-8.07Z"/>
      <path class="cls-2" d="m189.87,150.49v-2.13l3.27-.78-.81,1.08v-11.76l.93.66h-4.26l.84-.81-.72,3.27h-2.55v-5.55h15.72v5.55h-2.55l-.66-3.12.75.66h-4.17l.87-.66v11.76l-.72-1.08,3.21.78v2.13h-9.15Z"/>
      <path class="cls-2" d="m212.88,150.85c-1.64,0-3.14-.4-4.5-1.21-1.36-.81-2.45-2.02-3.27-3.63s-1.23-3.6-1.23-5.96.4-4.3,1.2-5.94c.8-1.64,1.93-2.9,3.39-3.78,1.46-.88,3.17-1.32,5.13-1.32,1.04,0,2.11.13,3.21.39,1.1.26,2.28.65,3.54,1.17l-.27,5.4h-2.55l-.72-3.51.72.69c-.7-.28-1.37-.49-2.01-.63-.64-.14-1.23-.21-1.77-.21-1.14,0-2.1.29-2.88.85-.78.57-1.37,1.4-1.77,2.48-.4,1.08-.6,2.37-.6,3.87,0,1.76.24,3.23.71,4.4s1.12,2.04,1.95,2.61c.83.57,1.76.85,2.8.85.78,0,1.61-.17,2.48-.5.87-.33,1.74-.83,2.62-1.51l1.59,2.49c-1.24,1-2.53,1.75-3.86,2.25-1.33.5-2.63.75-3.91.75Z"/>
      <path class="cls-2" d="m224.07,150.49v-2.13l3.27-.78-.81,1.08v-11.76l.93.66h-4.26l.84-.81-.72,3.27h-2.55v-5.55h15.72v5.55h-2.55l-.66-3.12.75.66h-4.17l.87-.66v11.76l-.72-1.08,3.21.78v2.13h-9.15Z"/>
      <path class="cls-2" d="m236.85,157.39v-2.16l2.55-.84-.54.72v-18.21l.48.57-2.49-.75v-2.16l5.28-.24.48,2.61-.48-.24c.94-.84,1.85-1.48,2.75-1.92.89-.44,1.82-.66,2.78-.66,1.16,0,2.18.31,3.06.92.88.61,1.58,1.51,2.08,2.7.51,1.19.76,2.65.76,4.37,0,1.94-.33,3.56-.99,4.86-.66,1.3-1.59,2.28-2.78,2.92-1.19.65-2.58.98-4.16.98-.48,0-.98-.04-1.5-.1-.52-.07-1.06-.17-1.62-.28l.54-.48v5.13l-.45-.63,2.79.75v2.16h-8.55Zm8.25-9.51c1.42,0,2.46-.48,3.11-1.44.65-.96.97-2.27.97-3.93,0-1.1-.13-2.04-.39-2.83s-.62-1.4-1.08-1.83c-.46-.43-1.03-.65-1.71-.65-.52,0-1.07.14-1.65.42-.58.28-1.18.71-1.8,1.29l.51-1.11v10.47l-.51-.81c.94.28,1.79.42,2.55.42Z"/>
      <path class="cls-2" d="m263.37,134.11c2.36,0,4.2.7,5.52,2.1,1.32,1.4,1.98,3.39,1.98,5.97,0,1.8-.32,3.35-.96,4.64-.64,1.29-1.56,2.29-2.76,2.98s-2.64,1.05-4.32,1.05c-2.36,0-4.18-.7-5.47-2.1-1.29-1.4-1.94-3.39-1.94-5.97,0-1.8.32-3.35.95-4.64.63-1.29,1.54-2.28,2.71-2.98,1.18-.7,2.61-1.05,4.29-1.05Zm-.21,3c-1.14,0-1.99.45-2.55,1.33-.56.89-.84,2.27-.84,4.12s.27,3.21.81,4.04,1.36,1.24,2.46,1.24c.8,0,1.45-.2,1.95-.6.5-.4.88-1.01,1.14-1.83.26-.82.39-1.83.39-3.03,0-1.82-.28-3.15-.84-4-.56-.85-1.4-1.27-2.52-1.27Z"/>
      <path class="cls-2" d="m272.67,150.49v-2.16l2.82-.87-.81.87v-11.58l1.08.93-3.09-.96v-2.16l7.86-.21v2.16l-2.76.96.9-.81v7.59l-.57-.15,7.38-6.54-.27.6-.03-1.41.66.66-2.52-.69v-2.16l7.86-.21v2.16l-2.82.96.81-.81v11.67l-.81-.87,2.82.87v2.16h-7.86v-2.16l2.55-.75-.69.75v-8.25l.48.57-7.32,6.84.33-.66v1.5l-.24-.57,2.1.57v2.16h-7.86Zm9.27-19.02c-1,0-1.92-.16-2.75-.48-.83-.32-1.51-.83-2.05-1.54s-.84-1.62-.9-2.75l3.93-.18c.04.96.29,1.67.74,2.12.45.45.98.67,1.6.67s1.14-.22,1.56-.67c.42-.45.6-1.1.54-1.96l2.94-.15c.04,1.14-.2,2.08-.72,2.81-.52.73-1.21,1.27-2.08,1.62-.87.35-1.81.52-2.81.52Z"/>
    </g>
  </g>
</svg>