<svg width="346" height="347" viewBox="0 0 346 347" fill="none" xmlns="http://www.w3.org/2000/svg">
<path d="M172 6L173.25 107M172 6L253.25 29.5M172 6L89 29.5M173.25 107L253.25 29.5M173.25 107L89 29.5M173.25 107H121.375M173.25 107H222.794M253.25 29.5L272.339 35.0211M89 29.5L69.5 35.0211M69.5 35.0211L6.72758 52.794C6.29713 52.9159 6 53.3088 6 53.7562V106C6 106.552 6.44772 107 7 107H26.5M69.5 35.0211V107M69.5 107H26.5M69.5 107H121.375M272.339 35.0211L333.858 52.8143C334.246 52.9267 334.529 53.2623 334.574 53.6644L340.377 105.89C340.442 106.482 339.979 107 339.383 107H319M272.339 35.0211V107M272.339 107H319M272.339 107H222.794M26.5 107V200M26.5 252.5H7C6.44772 252.5 6 252.948 6 253.5V340.5C6 341.052 6.44772 341.5 7 341.5H47M26.5 252.5V200M26.5 252.5H46C46.5523 252.5 47 252.948 47 253.5V341.5M319 252.5H339.5C340.052 252.5 340.5 252.948 340.5 253.5V340.5C340.5 341.052 340.052 341.5 339.5 341.5H298M319 252.5V200M319 252.5H299C298.448 252.5 298 252.948 298 253.5V341.5M319 107V200M26.5 200L121.375 107M222.794 107L319 200M47 341.5H298" stroke="black" stroke-width="11"/>
</svg>
