<svg width="379" height="312" viewBox="0 0 379 312" fill="none" xmlns="http://www.w3.org/2000/svg">
<rect x="158.5" y="131.5" width="129" height="28" rx="14" stroke="black" stroke-width="11"/>
<circle cx="275" cy="145" r="14.5" stroke="black" stroke-width="11"/>
<path d="M373 312V199.5M87.5 57L114.218 6.53211C114.392 6.20475 114.732 6 115.102 6H222.5M34 199.5V312M263 199.5V312M59.5 98.5L5.79585 198.025C5.43634 198.691 5.91884 199.5 6.6759 199.5H373M373 199.5V7C373 6.44772 372.552 6 372 6H222.5M156 21.5L146 38.5M255 60L232 101M314.5 42.5L298.5 66.5M222.5 6L181.5 84.5" stroke="black" stroke-width="11"/>
<rect x="47.5" y="62.5" width="129" height="28" rx="14" stroke="black" stroke-width="11"/>
<circle cx="164" cy="76" r="14.5" stroke="black" stroke-width="11"/>
<path d="M255.5 3L188 126M370.5 8L262.5 198.5M370.5 65L293 198.5" stroke="black" stroke-width="11"/>
</svg>
