<svg width="1661" height="699" viewBox="0 0 1661 699" fill="none" xmlns="http://www.w3.org/2000/svg">
<path d="M6 619L262.257 77.4631C263.482 74.8726 266.955 74.3738 268.86 76.5145L621 472.134" stroke="#FAC51C" stroke-width="12"/>
<path d="M6 626V547.741C6 547.162 6.12553 546.591 6.36793 546.065L256 5" stroke="#FAC51C" stroke-width="12"/>
<path d="M623.445 427.559C622.193 427.273 621 428.224 621 429.509V479.872C621 480.82 621.666 481.638 622.594 481.83L1653.59 695.501C1654.84 695.759 1656 694.811 1656 693.543V665.095C1656 664.162 1655.36 663.353 1654.45 663.145L623.445 427.559Z" fill="#FAC51C" stroke="#FAC51C" stroke-width="5"/>
<path d="M324.152 217.2C323.206 217.362 322.5 218.194 322.5 219.154V256.053C322.5 257.466 323.926 258.433 325.239 257.911L360.443 243.92C361.098 243.659 361.574 243.074 361.653 242.373C362.948 230.861 357.159 211.554 324.152 217.2Z" fill="#FAC51C"/>
<path d="M267.86 240.041C267.047 240.315 266.5 241.077 266.5 241.935V276.031C266.5 277.45 267.936 278.418 269.251 277.885L302.251 264.506C303.006 264.2 303.5 263.467 303.5 262.653V230.787C303.5 229.418 302.156 228.454 300.86 228.892L267.86 240.041Z" fill="#FAC51C"/>
<path d="M208.568 297.627C208.502 299.018 209.888 299.987 211.194 299.504L243.749 287.463C244.506 287.183 245.021 286.474 245.053 285.667L246.391 252.237C246.445 250.884 245.168 249.873 243.891 250.327C231.085 254.876 209.914 269.233 208.568 297.627Z" fill="#FAC51C"/>
<path d="M242.24 307.134C243.556 306.593 245 307.561 245 308.984V338.756C245 339.518 244.568 340.213 243.885 340.55L211.385 356.577C210.055 357.233 208.5 356.266 208.5 354.784V322.34C208.5 321.529 208.99 320.799 209.74 320.491L242.24 307.134Z" fill="#FAC51C"/>
<path d="M245 363.522C245 362.089 243.537 361.121 242.218 361.681L209.718 375.483C208.98 375.796 208.5 376.521 208.5 377.324V408.591C208.5 409.994 209.907 410.961 211.216 410.458L243.716 397.992C244.49 397.696 245 396.953 245 396.125V363.522Z" fill="#FAC51C"/>
<path d="M267.292 353.511C266.515 353.805 266 354.55 266 355.382V386.023C266 387.444 267.441 388.412 268.756 387.874L300.314 374.985C301.037 374.689 301.522 374 301.556 373.22L302.868 343.031C302.931 341.596 301.505 340.566 300.162 341.074L267.292 353.511Z" fill="#FAC51C"/>
<path d="M324.203 330.977C323.472 331.295 323 332.015 323 332.811V363.03C323 364.449 324.437 365.417 325.752 364.883L356.252 352.506C357.006 352.2 357.5 351.467 357.5 350.653V319.55C357.5 318.11 356.023 317.142 354.703 317.716L324.203 330.977Z" fill="#FAC51C"/>
<path d="M324.278 275.021C323.507 275.31 322.992 276.042 322.981 276.865L322.542 308.009C322.522 309.433 323.956 310.422 325.28 309.895L357.738 297.001C358.5 296.699 359 295.962 359 295.142V264.886C359 263.49 357.605 262.523 356.298 263.013L324.278 275.021Z" fill="#FAC51C"/>
<path d="M267.185 298.471C266.464 298.793 266 299.508 266 300.298V330.605C266 332.004 267.399 332.971 268.708 332.475L301.708 319.989C302.485 319.695 303 318.95 303 318.118V285.582C303 284.133 301.508 283.165 300.185 283.755L267.185 298.471Z" fill="#FAC51C"/>
<path d="M324.152 217.2C323.206 217.362 322.5 218.194 322.5 219.154V256.053C322.5 257.466 323.926 258.433 325.239 257.911L360.443 243.92C361.098 243.659 361.574 243.074 361.653 242.373C362.948 230.861 357.159 211.554 324.152 217.2Z" stroke="#FAC51C" stroke-width="12"/>
<path d="M267.86 240.041C267.047 240.315 266.5 241.077 266.5 241.935V276.031C266.5 277.45 267.936 278.418 269.251 277.885L302.251 264.506C303.006 264.2 303.5 263.467 303.5 262.653V230.787C303.5 229.418 302.156 228.454 300.86 228.892L267.86 240.041Z" stroke="#FAC51C" stroke-width="12"/>
<path d="M208.568 297.627C208.502 299.018 209.888 299.987 211.194 299.504L243.749 287.463C244.506 287.183 245.021 286.474 245.053 285.667L246.391 252.237C246.445 250.884 245.168 249.873 243.891 250.327C231.085 254.876 209.914 269.233 208.568 297.627Z" stroke="#FAC51C" stroke-width="12"/>
<path d="M242.24 307.134C243.556 306.593 245 307.561 245 308.984V338.756C245 339.518 244.568 340.213 243.885 340.55L211.385 356.577C210.055 357.233 208.5 356.266 208.5 354.784V322.34C208.5 321.529 208.99 320.799 209.74 320.491L242.24 307.134Z" stroke="#FAC51C" stroke-width="12"/>
<path d="M245 363.522C245 362.089 243.537 361.121 242.218 361.681L209.718 375.483C208.98 375.796 208.5 376.521 208.5 377.324V408.591C208.5 409.994 209.907 410.961 211.216 410.458L243.716 397.992C244.49 397.696 245 396.953 245 396.125V363.522Z" stroke="#FAC51C" stroke-width="12"/>
<path d="M267.292 353.511C266.515 353.805 266 354.55 266 355.382V386.023C266 387.444 267.441 388.412 268.756 387.874L300.314 374.985C301.037 374.689 301.522 374 301.556 373.22L302.868 343.031C302.931 341.596 301.505 340.566 300.162 341.074L267.292 353.511Z" stroke="#FAC51C" stroke-width="12"/>
<path d="M324.203 330.977C323.472 331.295 323 332.015 323 332.811V363.03C323 364.449 324.437 365.417 325.752 364.883L356.252 352.506C357.006 352.2 357.5 351.467 357.5 350.653V319.55C357.5 318.11 356.023 317.142 354.703 317.716L324.203 330.977Z" stroke="#FAC51C" stroke-width="12"/>
<path d="M324.278 275.021C323.507 275.31 322.992 276.042 322.981 276.865L322.542 308.009C322.522 309.433 323.956 310.422 325.28 309.895L357.738 297.001C358.5 296.699 359 295.962 359 295.142V264.886C359 263.49 357.605 262.523 356.298 263.013L324.278 275.021Z" stroke="#FAC51C" stroke-width="12"/>
<path d="M267.185 298.471C266.464 298.793 266 299.508 266 300.298V330.605C266 332.004 267.399 332.971 268.708 332.475L301.708 319.989C302.485 319.695 303 318.95 303 318.118V285.582C303 284.133 301.508 283.165 300.185 283.755L267.185 298.471Z" stroke="#FAC51C" stroke-width="12"/>
<path d="M259.84 6.43292C258.488 4.91527 259.999 2.58237 261.937 3.19574L542.173 91.8966C542.39 91.965 542.593 92.0698 542.774 92.2063L893.768 356.825C893.922 356.941 894.092 357.034 894.272 357.102L1315.8 514.492C1317.11 514.98 1318.5 514.014 1318.5 512.618V305.293C1318.5 304.506 1318.04 303.792 1317.32 303.469L895.835 113.776C894.508 113.179 893.007 114.153 893.014 115.609L893.982 331.486C893.989 333.137 892.107 334.085 890.785 333.097L573.643 96.1069C573.548 96.0358 573.447 95.9733 573.34 95.9201L571.976 95.2382C570.161 94.3304 570.696 91.6078 572.72 91.4551L883.04 68.0347C883.343 68.0119 883.647 68.0583 883.929 68.1705L1423.24 282.499C1424 282.801 1424.5 283.538 1424.5 284.357V312C1424.5 313.105 1423.6 314 1422.5 314H1335.5C1334.4 314 1333.5 314.895 1333.5 316V379.057C1333.5 379.654 1333.77 380.22 1334.23 380.6L1654.49 644.633C1656.12 645.975 1654.83 648.595 1652.77 648.127L623.124 413.642C622.718 413.55 622.351 413.333 622.074 413.022L259.84 6.43292Z" fill="#FAC51C" stroke="#FAC51C" stroke-width="5"/>
<path d="M991.259 246.631C989.943 246.092 988.5 247.059 988.5 248.482V319.143C988.5 319.962 989 320.699 989.761 321.001L1105.26 366.911C1106.57 367.433 1108 366.466 1108 365.053V295.842C1108 295.03 1107.51 294.299 1106.76 293.991L991.259 246.631Z" fill="#FAC51C"/>
<path d="M991.259 246.631C989.943 246.092 988.5 247.059 988.5 248.482V319.143C988.5 319.962 989 320.699 989.761 321.001L1105.26 366.911C1106.57 367.433 1108 366.466 1108 365.053V295.842C1108 295.03 1107.51 294.299 1106.76 293.991L991.259 246.631Z" fill="#FAC51C"/>
<path d="M1117 299V368.133C1117 368.957 1117.51 369.697 1118.27 369.996L1238.77 416.938C1240.09 417.449 1241.5 416.482 1241.5 415.074V349.842C1241.5 349.03 1241.01 348.299 1240.26 347.991L1118.39 298.069C1117.73 297.797 1117 298.284 1117 299V299Z" fill="#FAC51C"/>
<path d="M992.35 213.587C991.083 213.055 989.669 213.93 989.58 215.302L988.592 230.581C988.537 231.43 989.026 232.222 989.811 232.553L1240.72 338.329C1242.04 338.885 1243.5 337.917 1243.5 336.486V320.33C1243.5 319.524 1243.02 318.797 1242.27 318.485L992.35 213.587Z" fill="#FAC51C"/>
<path d="M991.259 246.631C989.943 246.092 988.5 247.059 988.5 248.482V319.143C988.5 319.962 989 320.699 989.761 321.001L1105.26 366.911C1106.57 367.433 1108 366.466 1108 365.053V295.842C1108 295.03 1107.51 294.299 1106.76 293.991L991.259 246.631Z" stroke="#FAC51C" stroke-width="5"/>
<path d="M991.259 246.631C989.943 246.092 988.5 247.059 988.5 248.482V319.143C988.5 319.962 989 320.699 989.761 321.001L1105.26 366.911C1106.57 367.433 1108 366.466 1108 365.053V295.842C1108 295.03 1107.51 294.299 1106.76 293.991L991.259 246.631Z" stroke="#FAC51C" stroke-width="5"/>
<path d="M1117 299V368.133C1117 368.957 1117.51 369.697 1118.27 369.996L1238.77 416.938C1240.09 417.449 1241.5 416.482 1241.5 415.074V349.842C1241.5 349.03 1241.01 348.299 1240.26 347.991L1118.39 298.069C1117.73 297.797 1117 298.284 1117 299V299Z" stroke="#FAC51C" stroke-width="5"/>
<path d="M992.35 213.587C991.083 213.055 989.669 213.93 989.58 215.302L988.592 230.581C988.537 231.43 989.026 232.222 989.811 232.553L1240.72 338.329C1242.04 338.885 1243.5 337.917 1243.5 336.486V320.33C1243.5 319.524 1243.02 318.797 1242.27 318.485L992.35 213.587Z" stroke="#FAC51C" stroke-width="5"/>
</svg>
