<svg width="362" height="651" viewBox="0 0 362 651" fill="none" xmlns="http://www.w3.org/2000/svg">
<path d="M358.499 477.788L69.4989 644.137C68.8322 644.521 68 644.04 68 643.271V213.076C68 212.719 68.1896 212.39 68.4978 212.211L357.498 44.3724C358.164 43.9852 359 44.4662 359 45.2371V476.922C359 477.28 358.809 477.61 358.499 477.788Z" stroke="black" stroke-width="5"/>
<path d="M298.642 3.20565L7.26139 170.775C6.65326 171.124 6.58486 171.975 7.12933 172.418L21.4406 184.046C21.7747 184.317 22.2449 184.344 22.6081 184.113L27.0902 181.261C27.3489 181.096 27.5178 180.822 27.5483 180.517L28.9491 166.509C28.9811 166.189 29.1645 165.905 29.4423 165.743L304.415 6.20996C305.185 5.76309 305.031 4.6082 304.17 4.37876L299.399 3.10629C299.143 3.03821 298.871 3.07393 298.642 3.20565Z" stroke="black" stroke-width="5"/>
<path d="M321.542 4.26759L39.9952 168.627C39.3305 169.015 39.335 169.977 40.0032 170.359L48.5003 175.214C48.8096 175.391 49.1897 175.39 49.498 175.211L332.864 10.9484C333.559 10.5456 333.519 9.52927 332.795 9.1817L322.479 4.22968C322.179 4.08605 321.828 4.10025 321.542 4.26759Z" stroke="black" stroke-width="5"/>
<path d="M338.499 15.3692L49.4989 182.711C49.1901 182.89 49 183.22 49 183.577V188.263C49 189.034 49.8355 189.515 50.5022 189.128L339.502 21.2891C339.81 21.1101 340 20.7807 340 20.4243V16.2346C340 15.4642 339.166 14.9832 338.499 15.3692Z" stroke="black" stroke-width="5"/>
<path d="M339.506 28.2861L48.0351 197.111C47.361 197.501 47.3724 198.478 48.0555 198.853L61.5069 206.23C61.8131 206.397 62.1847 206.394 62.4872 206.219L354.479 37.877C355.15 37.4899 355.145 36.5191 354.47 36.1391L340.498 28.2799C340.189 28.1064 339.812 28.1088 339.506 28.2861Z" stroke="black" stroke-width="5"/>
<path d="M18.4808 189.715L4.97889 182.311C4.31291 181.946 3.49893 182.427 3.49806 183.187L3.00066 615.93C3.00025 616.283 3.18631 616.611 3.49012 616.791L17.4895 625.103C18.1561 625.499 19 625.018 19 624.243V190.592C19 190.227 18.801 189.891 18.4808 189.715Z" stroke="black" stroke-width="5"/>
<path d="M44 638.47V206.567C44 205.836 44.7583 205.352 45.4211 205.66L57.4211 211.231C57.7741 211.395 58 211.749 58 212.138V646.613C58 647.415 57.1025 647.891 56.4385 647.44L44.4385 639.298C44.1642 639.111 44 638.802 44 638.47Z" stroke="black" stroke-width="5"/>
<path d="M28 623.949V190.308C28 189.433 29.0453 188.98 29.6839 189.579L35.6839 195.204C35.8856 195.393 36 195.657 36 195.933V627.737C36 628.524 35.132 629.003 34.4661 628.582L28.4661 624.794C28.176 624.611 28 624.292 28 623.949Z" stroke="black" stroke-width="5"/>
</svg>
