<svg width="598" height="207" viewBox="0 0 598 207" fill="none" xmlns="http://www.w3.org/2000/svg">
<path d="M138 6L6.06978 198.936C5.61594 199.599 6.09121 200.5 6.89524 200.5H28.9755C29.304 200.5 29.6115 200.339 29.7982 200.069L137.178 44.6896C137.575 44.1145 138.425 44.1142 138.823 44.689L246.698 200.563C246.887 200.836 247.199 200.998 247.531 200.994L272 200.711M138 6H220.5M138 6L205 103.356M272 200.711L362 199.672M272 200.711L205 103.356M220.5 6L362 199.672M220.5 6H292.5M362 199.672L435 198.83M292.5 6L435 198.83M292.5 6H367M435 198.83L514.25 197.915M367 6H441.018C441.322 6 441.611 6.1389 441.8 6.37731L517.5 101.5M367 6L514.25 197.915M514.25 197.915L591.457 197.024C592.288 197.014 592.746 196.052 592.227 195.401L517.5 101.5M517.5 101.5L205 103.356" stroke="black" stroke-width="11"/>
</svg>
