<?xml version="1.0" encoding="utf-8"?>
<!-- Generator: Adobe Illustrator 27.2.0, SVG Export Plug-In . SVG Version: 6.00 Build 0)  -->
<svg version="1.1" id="Layer_1" xmlns="http://www.w3.org/2000/svg" xmlns:xlink="http://www.w3.org/1999/xlink" x="0px" y="0px"
	 viewBox="0 0 40 41" style="enable-background:new 0 0 40 41;" xml:space="preserve">
<style type="text/css">
	.st0{fill:#FFFFFF;filter:url(#Adobe_OpacityMaskFilter);}
	
		.st1{mask:url(#path-1-inside-1_57_91_00000000938979379971160390000015101962580231058095_);fill:none;stroke:#7D5F00;stroke-width:4;}
</style>
<defs>
	<filter id="Adobe_OpacityMaskFilter" filterUnits="userSpaceOnUse" x="-1.3" y="-1.3" width="42.8" height="43.7">
		<feColorMatrix  type="matrix" values="1 0 0 0 0  0 1 0 0 0  0 0 1 0 0  0 0 0 1 0"/>
	</filter>
</defs>
<mask maskUnits="userSpaceOnUse" x="-1.3" y="-1.3" width="42.8" height="43.7" id="path-1-inside-1_57_91_00000000938979379971160390000015101962580231058095_">
	<path class="st0" d="M20.1,0.7C9.4,0.7,0.7,9.6,0.7,20.6c0,3.5,0.9,6.8,2.5,9.7l-2.5,9.1c0,0.1,0,0.3,0,0.4c0,0.1,0.1,0.3,0.2,0.4
		c0.1,0.1,0.2,0.2,0.4,0.2c0.1,0,0.3,0,0.4,0l9.3-2.3c2.7,1.5,5.8,2.4,9.1,2.4c10.7,0,19.4-8.9,19.4-19.9
		C39.5,9.6,30.8,0.7,20.1,0.7z M20.1,2.5c9.8,0,17.7,8.1,17.7,18.1s-7.9,18.1-17.7,18.1c-3.1,0-6.1-0.8-8.6-2.3
		c-0.2-0.1-0.4-0.1-0.6-0.1l-8.1,2.1l2.2-7.9c0-0.1,0-0.2,0-0.3c0-0.1-0.1-0.2-0.1-0.3c-1.6-2.7-2.4-5.8-2.4-9.2
		C2.4,10.6,10.3,2.5,20.1,2.5z M13,10.2c-0.5,0-1.3,0.2-1.9,0.9c-0.4,0.4-2,2-2,4.8c0,2.9,2,5.4,2.2,5.7h0v0c0,0,0.3,0.5,0.7,1
		c0.4,0.6,1,1.3,1.8,2.2c1.5,1.6,3.7,3.5,6.3,4.7c1.2,0.5,2.2,0.9,2.9,1.1c1.4,0.4,2.6,0.4,3.5,0.2c0.7-0.1,1.5-0.4,2.2-0.9
		c0.8-0.5,1.5-1.1,1.8-2c0.2-0.7,0.4-1.3,0.4-1.8c0-0.3,0-0.5,0-0.7c0-0.2,0-0.4-0.2-0.7c-0.4-0.7-0.8-0.7-1.3-0.9
		c-0.3-0.1-1-0.5-1.7-0.9c-0.7-0.4-1.4-0.7-1.8-0.8c-0.2-0.1-0.6-0.2-1-0.2c-0.4,0.1-0.9,0.4-1.1,0.8c-0.2,0.4-1.2,1.5-1.5,1.9
		c0,0,0,0-0.1,0c-0.4-0.2-0.8-0.3-1.5-0.7c-0.7-0.4-1.5-0.9-2.4-1.7v0C17.2,21,16.3,19.5,16,19c0,0,0,0,0,0l0,0
		c0.3-0.3,0.6-0.7,0.8-0.9c0.3-0.4,0.5-0.7,0.6-1c0.3-0.6,0.1-1.3,0-1.7v0c0,0-0.1-0.2-0.2-0.5c-0.1-0.3-0.3-0.6-0.4-1
		c-0.3-0.8-0.7-1.6-0.9-2.2v0c-0.2-0.6-0.6-1-1-1.2c-0.4-0.2-0.8-0.1-0.8-0.1h0C13.7,10.2,13.4,10.2,13,10.2z M13,11.9
		c0.3,0,0.6,0,0.9,0c0.3,0,0.3,0,0.2,0c-0.1,0,0,0,0.2,0.3c0.2,0.5,0.6,1.4,0.9,2.1c0.2,0.4,0.3,0.8,0.4,1c0.1,0.3,0.2,0.4,0.3,0.6
		v0l0,0c0.1,0.1,0.1,0.1,0,0.1c-0.2,0.4-0.2,0.5-0.4,0.7c-0.3,0.3-0.6,0.7-0.7,0.8c-0.1,0.1-0.4,0.3-0.5,0.7
		c-0.1,0.4-0.1,0.9,0.2,1.4c0.3,0.5,1.3,2.3,2.9,3.7c1,0.9,1.9,1.5,2.7,1.9c0.7,0.4,1.4,0.6,1.5,0.7c0.3,0.2,0.7,0.3,1.1,0.2
		c0.4-0.1,0.8-0.3,1-0.6l0,0c0.3-0.3,1.2-1.4,1.6-2c0,0,0,0,0.2,0.1v0h0c0.1,0,0.9,0.4,1.6,0.8c0.7,0.4,1.5,0.7,1.7,0.8
		c0.3,0.2,0.5,0.3,0.6,0.3c0,0.1,0,0.2,0,0.3c0,0.3-0.1,0.8-0.3,1.3c-0.1,0.3-0.6,0.8-1.1,1.1s-1.3,0.6-1.6,0.7
		c-0.8,0.1-1.7,0.2-2.8-0.2c-0.7-0.2-1.6-0.5-2.8-1c-2.3-1-4.3-2.8-5.8-4.3c-0.7-0.8-1.3-1.5-1.7-2c-0.4-0.5-0.6-0.8-0.7-1l0,0
		c-0.3-0.4-1.9-2.6-1.9-4.7c0-2.2,1-3,1.5-3.6C12.6,12,12.9,11.9,13,11.9z"/>
</mask>
<path class="st1" d="M20.1,0.7C9.4,0.7,0.7,9.6,0.7,20.6c0,3.5,0.9,6.8,2.5,9.7l-2.5,9.1c0,0.1,0,0.3,0,0.4c0,0.1,0.1,0.3,0.2,0.4
	c0.1,0.1,0.2,0.2,0.4,0.2c0.1,0,0.3,0,0.4,0l9.3-2.3c2.7,1.5,5.8,2.4,9.1,2.4c10.7,0,19.4-8.9,19.4-19.9C39.5,9.6,30.8,0.7,20.1,0.7
	z M20.1,2.5c9.8,0,17.7,8.1,17.7,18.1s-7.9,18.1-17.7,18.1c-3.1,0-6.1-0.8-8.6-2.3c-0.2-0.1-0.4-0.1-0.6-0.1l-8.1,2.1l2.2-7.9
	c0-0.1,0-0.2,0-0.3c0-0.1-0.1-0.2-0.1-0.3c-1.6-2.7-2.4-5.8-2.4-9.2C2.4,10.6,10.3,2.5,20.1,2.5z M13,10.2c-0.5,0-1.3,0.2-1.9,0.9
	c-0.4,0.4-2,2-2,4.8c0,2.9,2,5.4,2.2,5.7h0v0c0,0,0.3,0.5,0.7,1c0.4,0.6,1,1.3,1.8,2.2c1.5,1.6,3.7,3.5,6.3,4.7
	c1.2,0.5,2.2,0.9,2.9,1.1c1.4,0.4,2.6,0.4,3.5,0.2c0.7-0.1,1.5-0.4,2.2-0.9c0.8-0.5,1.5-1.1,1.8-2c0.2-0.7,0.4-1.3,0.4-1.8
	c0-0.3,0-0.5,0-0.7c0-0.2,0-0.4-0.2-0.7c-0.4-0.7-0.8-0.7-1.3-0.9c-0.3-0.1-1-0.5-1.7-0.9c-0.7-0.4-1.4-0.7-1.8-0.8
	c-0.2-0.1-0.6-0.2-1-0.2c-0.4,0.1-0.9,0.4-1.1,0.8c-0.2,0.4-1.2,1.5-1.5,1.9c0,0,0,0-0.1,0c-0.4-0.2-0.8-0.3-1.5-0.7
	c-0.7-0.4-1.5-0.9-2.4-1.7v0C17.2,21,16.3,19.5,16,19c0,0,0,0,0,0l0,0c0.3-0.3,0.6-0.7,0.8-0.9c0.3-0.4,0.5-0.7,0.6-1
	c0.3-0.6,0.1-1.3,0-1.7v0c0,0-0.1-0.2-0.2-0.5c-0.1-0.3-0.3-0.6-0.4-1c-0.3-0.8-0.7-1.6-0.9-2.2v0c-0.2-0.6-0.6-1-1-1.2
	c-0.4-0.2-0.8-0.1-0.8-0.1h0C13.7,10.2,13.4,10.2,13,10.2z M13,11.9c0.3,0,0.6,0,0.9,0c0.3,0,0.3,0,0.2,0c-0.1,0,0,0,0.2,0.3
	c0.2,0.5,0.6,1.4,0.9,2.1c0.2,0.4,0.3,0.8,0.4,1c0.1,0.3,0.2,0.4,0.3,0.6v0l0,0c0.1,0.1,0.1,0.1,0,0.1c-0.2,0.4-0.2,0.5-0.4,0.7
	c-0.3,0.3-0.6,0.7-0.7,0.8c-0.1,0.1-0.4,0.3-0.5,0.7c-0.1,0.4-0.1,0.9,0.2,1.4c0.3,0.5,1.3,2.3,2.9,3.7c1,0.9,1.9,1.5,2.7,1.9
	c0.7,0.4,1.4,0.6,1.5,0.7c0.3,0.2,0.7,0.3,1.1,0.2c0.4-0.1,0.8-0.3,1-0.6l0,0c0.3-0.3,1.2-1.4,1.6-2c0,0,0,0,0.2,0.1v0h0
	c0.1,0,0.9,0.4,1.6,0.8c0.7,0.4,1.5,0.7,1.7,0.8c0.3,0.2,0.5,0.3,0.6,0.3c0,0.1,0,0.2,0,0.3c0,0.3-0.1,0.8-0.3,1.3
	c-0.1,0.3-0.6,0.8-1.1,1.1s-1.3,0.6-1.6,0.7c-0.8,0.1-1.7,0.2-2.8-0.2c-0.7-0.2-1.6-0.5-2.8-1c-2.3-1-4.3-2.8-5.8-4.3
	c-0.7-0.8-1.3-1.5-1.7-2c-0.4-0.5-0.6-0.8-0.7-1l0,0c-0.3-0.4-1.9-2.6-1.9-4.7c0-2.2,1-3,1.5-3.6C12.6,12,12.9,11.9,13,11.9z"/>
</svg>
